HIERARCHY
ROOT Hips
{
	OFFSET 0.000000 0.000000 0.000000
	CHANNELS 6 Xposition Yposition Zposition Zrotation Yrotation Xrotation 
	JOINT LHipJoint
	{
		OFFSET 0.000000 0.000000 0.000000
		CHANNELS 3 Zrotation Yrotation Xrotation
		JOINT LeftUpLeg
		{
			OFFSET 1.363060 -1.794630 0.839290
			CHANNELS 3 Zrotation Yrotation Xrotation
			JOINT LeftLeg
			{
				OFFSET 2.448110 -6.726130 0.000000
				CHANNELS 3 Zrotation Yrotation Xrotation
				JOINT LeftFoot
				{
					OFFSET 2.562200 -7.039590 0.000000
					CHANNELS 3 Zrotation Yrotation Xrotation
					JOINT LeftToeBase
					{
						OFFSET 0.157640 -0.433110 2.322550
						CHANNELS 3 Zrotation Yrotation Xrotation
						End Site
						{
							OFFSET 0.000000 0.000000 0.000000
						}
					}
				}
			}
		}
	}
	JOINT RHipJoint
	{
		OFFSET 0.000000 0.000000 0.000000
		CHANNELS 3 Zrotation Yrotation Xrotation
		JOINT RightUpLeg
		{
			OFFSET -1.305520 -1.794630 0.839290
			CHANNELS 3 Zrotation Yrotation Xrotation
			JOINT RightLeg
			{
				OFFSET -2.542530 -6.985550 0.000000
				CHANNELS 3 Zrotation Yrotation Xrotation
				JOINT RightFoot
				{
					OFFSET -2.568260 -7.056230 0.000000
					CHANNELS 3 Zrotation Yrotation Xrotation
					JOINT RightToeBase
					{
						OFFSET -0.164730 -0.452590 2.363150
						CHANNELS 3 Zrotation Yrotation Xrotation
						End Site
						{
							OFFSET 0.000000 0.000000 0.000000
						}
					}
				}
			}
		}
	}
	JOINT LowerBack
	{
		OFFSET 0.000000 0.000000 0.000000
		CHANNELS 3 Zrotation Yrotation Xrotation
		JOINT Spine
		{
			OFFSET 0.028270 2.035590 -0.193380
			CHANNELS 3 Zrotation Yrotation Xrotation
			JOINT Spine1
			{
				OFFSET 0.056720 2.048850 -0.042750
				CHANNELS 3 Zrotation Yrotation Xrotation
				JOINT Neck
				{
					OFFSET 0.000000 0.000000 0.000000
					CHANNELS 3 Zrotation Yrotation Xrotation
					JOINT Neck1
					{
						OFFSET -0.054170 1.746240 0.172020
						CHANNELS 3 Zrotation Yrotation Xrotation
						JOINT Head
						{
							OFFSET 0.104070 1.761360 -0.123970
							CHANNELS 3 Zrotation Yrotation Xrotation
							End Site
							{
								OFFSET 0.000000 0.000000 0.000000
							}
						}
					}
				}
				JOINT LeftShoulder
				{
					OFFSET 0.000000 0.000000 0.000000
					CHANNELS 3 Zrotation Yrotation Xrotation
					JOINT LeftArm
					{
						OFFSET 3.362410 1.200890 -0.311210
						CHANNELS 3 Zrotation Yrotation Xrotation
						JOINT LeftForeArm
						{
							OFFSET 4.983000 -0.000000 -0.000000
							CHANNELS 3 Zrotation Yrotation Xrotation
							JOINT LeftHand
							{
								OFFSET 3.483560 -0.000000 -0.000000
								CHANNELS 3 Zrotation Yrotation Xrotation
								JOINT LeftFingerBase
								{
									OFFSET 0.000000 0.000000 0.000000
									CHANNELS 3 Zrotation Yrotation Xrotation
									JOINT LeftHandIndex1
									{
										OFFSET 0.715260 -0.000000 -0.000000
										CHANNELS 3 Zrotation Yrotation Xrotation
										End Site
										{
											OFFSET 0.000000 0.000000 0.000000
										}
									}
								}
								JOINT LThumb
								{
									OFFSET 0.000000 0.000000 0.000000
									CHANNELS 3 Zrotation Yrotation Xrotation
									End Site
									{
										OFFSET 0.000000 0.000000 0.000000
									}
								}
							}
						}
					}
				}
				JOINT RightShoulder
				{
					OFFSET 0.000000 0.000000 0.000000
					CHANNELS 3 Zrotation Yrotation Xrotation
					JOINT RightArm
					{
						OFFSET -3.136600 1.374050 -0.404650
						CHANNELS 3 Zrotation Yrotation Xrotation
						JOINT RightForeArm
						{
							OFFSET -5.241900 -0.000000 -0.000000
							CHANNELS 3 Zrotation Yrotation Xrotation
							JOINT RightHand
							{
								OFFSET -3.444170 -0.000000 -0.000000
								CHANNELS 3 Zrotation Yrotation Xrotation
								JOINT RightFingerBase
								{
									OFFSET 0.000000 0.000000 0.000000
									CHANNELS 3 Zrotation Yrotation Xrotation
									JOINT RightHandIndex1
									{
										OFFSET -0.622530 -0.000000 -0.000000
										CHANNELS 3 Zrotation Yrotation Xrotation
										End Site
										{
											OFFSET 0.000000 0.000000 0.000000
										}
									}
								}
								JOINT RThumb
								{
									OFFSET 0.000000 0.000000 0.000000
									CHANNELS 3 Zrotation Yrotation Xrotation
									End Site
									{
										OFFSET 0.000000 0.000000 0.000000
									}
								}
							}
						}
					}
				}
			}
		}
	}
}
MOTION
Frames: 4
Frame Time: 0.008333
-0.181357 16.862378 0.736652 45.252657 85.603954 69.221053 -11.846200 1.592226 -2.994567 -3.202236 4.566280 -18.437151 -0.840049 2.494629 41.708419 0.270782 -3.156011 7.216362 -0.818400 -0.000000 -66.839800 7.813112 0.753315 0.231418 11.657898 3.035509 -46.568271 2.326031 -0.531955 18.629384 -2.606496 -10.866051 -2.642850 -2.341300 0.000001 -5.580800 5.429335 -1.473795 5.602082 0.136677 -1.563878 -1.676633 -6.971210 -1.636651 0.799814 9.491566 4.353296 4.605252 -4.651467 -0.395062 2.889663 0.000000 0.000000 0.000000 -4.884068 -5.716083 1.880624 -58.409202 -30.824816 7.536811 -3.035217 -35.031814 -0.022744 8.286824 -3.180397 -0.251363 -0.163004 0.233824 0.000000 0.000000 0.000000 0.000000 0.000000 0.000000 0.000000 19.633550 0.734349 0.238394 65.938229 11.978490 -11.664402 2.898658 19.106207 0.007467 0.240283 7.386041 0.012652 0.051379 -0.086948 -0.000000 0.000000 0.000000 0.000000 0.000000 0.000000 0.000000 
-0.076708 16.881105 0.803662 47.948115 85.580434 71.900370 -11.832937 1.515923 -2.999439 -3.098973 4.053240 -19.213732 -0.660943 2.599759 43.533860 0.352131 -2.904467 8.388400 -0.865300 -0.000000 -63.648300 7.823084 0.777158 0.062045 11.753037 2.837396 -46.108629 2.320526 -0.553886 19.016570 -2.663107 -10.865382 -3.597426 -2.120400 0.000000 -5.044900 5.255775 -1.514224 5.811641 0.117307 -1.589015 -1.653499 -6.901463 -1.666188 0.726730 9.867292 4.629752 4.687394 -4.565567 -0.391457 2.912762 0.000000 0.000000 0.000000 -4.650495 -5.948315 1.887132 -58.994543 -30.185914 7.642640 -3.054649 -34.073834 -0.021719 8.109035 -3.037081 -0.235099 -0.160252 0.227182 0.000000 0.000000 0.000000 0.000000 0.000000 0.000000 0.000000 19.639462 1.034166 0.248443 66.382905 12.522707 -11.935652 2.868338 18.608423 0.007131 0.253879 7.313743 0.013548 0.049148 -0.086946 -0.000000 0.000000 0.000000 0.000000 0.000000 0.000000 0.000000 
0.027142 16.899554 0.872392 50.958957 85.508809 74.879391 -11.795948 1.443834 -2.999025 -3.073005 3.502076 -19.953818 -0.494180 2.690718 45.275584 0.438413 -2.526952 9.395412 -0.860700 0.000000 -60.189000 7.861325 0.813111 -0.102796 11.774154 2.597100 -45.611377 2.306892 -0.570423 19.298318 -2.706775 -10.855559 -4.386654 -1.931400 0.000000 -4.515700 5.028522 -1.553349 6.010603 0.087539 -1.612294 -1.627061 -6.828501 -1.692504 0.669749 10.240265 4.851401 4.769239 -4.476822 -0.387785 2.934755 0.000000 0.000000 0.000000 -4.467980 -6.182138 1.899337 -59.468493 -29.560643 7.876472 -3.086090 -33.147856 -0.020269 7.801430 -2.834477 -0.211628 -0.157436 0.219711 0.000000 0.000000 0.000000 0.000000 0.000000 0.000000 0.000000 19.624443 1.284801 0.245841 66.859275 13.077040 -12.084503 2.834623 18.204710 0.006809 0.258916 7.273362 0.013945 0.046862 -0.087027 -0.000000 0.000000 0.000000 0.000000 0.000000 0.000000 0.000000 
0.130810 16.917583 0.941884 53.849102 85.391675 77.727425 -11.738945 1.378287 -2.996825 -3.106343 2.947963 -20.657586 -0.342172 2.770158 46.918073 0.527972 -2.024658 10.225742 -0.799400 0.000000 -56.700501 7.923731 0.860052 -0.256740 11.730290 2.352154 -45.098663 2.284215 -0.584621 19.520567 -2.740012 -10.840395 -5.039721 -1.770300 -0.000000 -3.933500 4.768674 -1.584947 6.195790 0.050994 -1.628301 -1.597619 -6.752998 -1.710215 0.630513 10.595826 5.000309 4.845376 -4.388938 -0.384174 2.954109 0.000000 0.000000 0.000000 -4.339277 -6.412448 1.912890 -59.849186 -28.938627 8.216617 -3.128377 -32.263875 -0.018418 7.366644 -2.592722 -0.183453 -0.154412 0.211477 0.000000 0.000000 0.000000 0.000000 0.000000 0.000000 0.000000 19.589569 1.466058 0.231307 67.350619 13.662788 -12.034584 2.799640 17.885294 0.006503 0.226107 7.277422 0.011943 0.044834 -0.087269 -0.000000 0.000000 0.000000 0.000000 0.000000 0.000000 0.000000 
